<svg xmlns="http://www.w3.org/2000/svg" xmlns:xlink="http://www.w3.org/1999/xlink" width="96" zoomAndPan="magnify" viewBox="0 0 72 72" height="96" preserveAspectRatio="xMidYMid meet" version="1.0"><defs><clipPath id="3698489b06"><path d="M 4.890625 60 L 16 60 L 16 67 L 4.890625 67 Z M 4.890625 60 " clip-rule="nonzero"/></clipPath><clipPath id="6a31370705"><path d="M 9 43 L 32 43 L 32 67.707031 L 9 67.707031 Z M 9 43 " clip-rule="nonzero"/></clipPath></defs><g clip-path="url(#3698489b06)"><path fill="#f15a24" d="M 15.769531 65.996094 L 4.890625 66.367188 L 10.464844 60.730469 Z M 15.769531 65.996094 " fill-opacity="1" fill-rule="nonzero"/></g><path fill="#f15a24" d="M 65.125 38.027344 C 63.101562 53.699219 48.6875 64.769531 32.925781 62.757812 C 17.167969 60.75 6.03125 46.414062 8.050781 30.742188 C 10.074219 15.074219 24.488281 4 40.25 6.011719 C 56.011719 8.019531 67.148438 22.355469 65.125 38.027344 " fill-opacity="1" fill-rule="nonzero"/><path fill="#999999" d="M 43.921875 26.253906 C 45.8125 28.25 43.949219 32.976562 43.949219 32.976562 C 43.949219 32.976562 42.105469 39.65625 31.546875 48.316406 L 29.574219 46.394531 L 42.980469 32.773438 L 43.238281 32.425781 C 43.59375 31.847656 43.886719 26.214844 43.921875 26.253906 " fill-opacity="1" fill-rule="nonzero"/><path stroke-linecap="round" transform="matrix(0.236602, 0, 0, 0.235258, 4.889181, 5.660244)" fill="none" stroke-linejoin="round" d="M 164.971934 87.536678 C 172.962673 96.021396 165.087503 116.11241 165.087503 116.11241 C 165.087503 116.11241 157.294881 144.505497 112.668916 181.316885 L 104.331471 173.147646 L 160.993074 115.248995 L 162.082721 113.771226 C 163.585112 111.313813 164.823346 87.370636 164.971934 87.536678 Z M 164.971934 87.536678 " stroke="#ffffff" stroke-width="1.918" stroke-opacity="1" stroke-miterlimit="4"/><path stroke-linecap="round" transform="matrix(0.236602, 0, 0, 0.235258, 4.889181, 5.660244)" fill-opacity="1" fill="#666666" fill-rule="nonzero" stroke-linejoin="round" d="M 92.097716 161.109642 L 164.856366 87.320824 C 168.554559 91.704318 169.347029 96.436499 168.273892 103.177782 C 167.547462 107.826942 159.490683 117.141867 159.490683 117.141867 L 104.331471 173.147646 " stroke="#ffffff" stroke-width="1.201" stroke-opacity="1" stroke-miterlimit="4"/><path fill="#ff931e" d="M 43.921875 26.265625 L 26.679688 43.5625 L 26.714844 43.53125 L 26.707031 43.53125 L 22.429688 39.339844 C 31.351562 28.304688 37.117188 26.246094 37.117188 26.246094 C 37.117188 26.246094 40.875 24.789062 43.554688 25.921875 C 43.761719 26.03125 43.851562 26.09375 43.921875 26.265625 " fill-opacity="1" fill-rule="nonzero"/><path stroke-linecap="round" transform="matrix(0.236602, 0, 0, 0.235258, 4.889181, 5.660244)" fill="none" stroke-linejoin="round" d="M 164.971934 87.58649 L 92.097716 161.109642 L 92.246304 160.976809 L 92.213285 160.976809 L 74.135063 143.160562 C 111.843426 96.253854 136.211878 87.50347 136.211878 87.50347 C 136.211878 87.50347 152.094297 81.310124 163.420014 86.125326 C 164.295033 86.590242 164.674758 86.855908 164.971934 87.58649 Z M 164.971934 87.58649 " stroke="#ffffff" stroke-width="1.918" stroke-opacity="1" stroke-miterlimit="4"/><g clip-path="url(#6a31370705)"><path stroke-linecap="round" transform="matrix(0.236602, 0, 0, 0.235258, 4.889181, 5.660244)" fill-opacity="1" fill="#999999" fill-rule="nonzero" stroke-linejoin="round" d="M 112.668916 181.316885 C 95.284106 195.646262 73.028907 218.144878 42.78297 233.835794 L 49.502455 262.594172 L 20.990046 234.49996 L 92.097716 161.109642 " stroke="#ffffff" stroke-width="1.918" stroke-opacity="1" stroke-miterlimit="4"/></g><path stroke-linecap="round" transform="matrix(0.236602, 0, 0, 0.235258, 4.889181, 5.660244)" fill-opacity="1" fill="#f15a24" fill-rule="nonzero" stroke-linejoin="round" d="M 74.630357 143.39302 L 92.295834 160.993413 L 51.48363 169.843422 L 74.234122 143.077541 Z M 74.630357 143.39302 " stroke="#ffffff" stroke-width="1.918" stroke-opacity="1" stroke-miterlimit="4"/><path fill="#999999" d="M 42.277344 21.246094 C 41.867188 24.925781 44.53125 28.238281 48.230469 28.648438 C 51.929688 29.054688 55.265625 26.40625 55.679688 22.726562 C 56.089844 19.046875 53.421875 15.730469 49.71875 15.324219 C 46.019531 14.917969 42.6875 17.566406 42.277344 21.246094 " fill-opacity="1" fill-rule="nonzero"/><path stroke-linecap="round" transform="matrix(0.236602, 0, 0, 0.235258, 4.889181, 5.660244)" fill="none" stroke-linejoin="round" d="M 158.021312 66.250165 C 156.287784 81.891269 167.547462 95.971583 183.182234 97.715018 C 198.817006 99.441849 212.916367 88.18424 214.666405 72.543136 C 216.399933 56.902032 205.123746 42.805113 189.472464 41.078282 C 173.837692 39.351451 159.75484 50.609061 158.021312 66.250165 Z M 158.021312 66.250165 " stroke="#ffffff" stroke-width="1.918" stroke-opacity="1" stroke-miterlimit="4"/><path fill="#666666" d="M 54.710938 25.691406 C 55.953125 23.882812 55.890625 21.179688 55.636719 20.378906 C 55.332031 19.398438 54.648438 17.804688 53.453125 16.976562 L 47.132812 22.765625 C 47.132812 22.765625 51.988281 27.953125 52.113281 27.972656 C 52.167969 27.976562 53.574219 27.335938 54.710938 25.691406 " fill-opacity="1" fill-rule="nonzero"/><path stroke-linecap="round" transform="matrix(0.236602, 0, 0, 0.235258, 4.889181, 5.660244)" fill="none" stroke-linejoin="round" d="M 210.571977 85.145681 C 215.822091 77.457962 215.557934 65.967894 214.484798 62.564045 C 213.197034 58.396405 210.30782 51.621914 205.255824 48.101835 L 178.542982 72.709177 C 178.542982 72.709177 199.064653 94.759481 199.592966 94.842501 C 199.824103 94.859106 205.767628 92.136026 210.571977 85.145681 Z M 205.173275 65.868269 C 205.173275 65.868269 207.732293 72.177844 204.496374 77.076067 Z M 205.173275 65.868269 " stroke="#ffffff" stroke-width="1.918" stroke-opacity="1" stroke-miterlimit="4"/><path fill="#666666" d="M 29.722656 46.398438 L 22.75 47.628906 L 26.957031 43.28125 " fill-opacity="1" fill-rule="nonzero"/><path stroke-linecap="round" transform="matrix(0.236602, 0, 0, 0.235258, 4.889181, 5.660244)" fill="none" stroke-linejoin="round" d="M 104.958843 173.164251 L 75.488866 178.394556 L 93.269911 159.914143 M 75.307259 143.525853 L 112.784484 178.793055 " stroke="#ffffff" stroke-width="1.918" stroke-opacity="1" stroke-miterlimit="4"/></svg>